<?xml version="1.0" standalone="no"?>
<!DOCTYPE svg PUBLIC "-//W3C//DTD SVG 20010904//EN"
 "http://www.w3.org/TR/2001/REC-SVG-20010904/DTD/svg10.dtd">
<svg version="1.0" xmlns="http://www.w3.org/2000/svg"
 width="498.000000pt" height="498.000000pt" viewBox="0 0 498.000000 498.000000"
 preserveAspectRatio="xMidYMid meet">
<metadata>
Created by potrace 1.14, written by Peter Selinger 2001-2017
</metadata>
<g transform="translate(0.000000,498.000000) scale(0.100000,-0.100000)"
fill="#000000" stroke="none">
<path d="M2400 4968 c-19 -4 -80 -23 -135 -43 -55 -20 -136 -49 -180 -65 -44
-15 -123 -44 -175 -62 l-95 -35 -210 52 c-116 29 -228 52 -250 51 -38 -1 -40
-3 -39 -31 0 -16 19 -76 41 -131 l40 -101 -41 9 c-22 5 -48 11 -56 13 -8 2
-46 11 -85 20 -38 9 -83 19 -100 21 -16 2 -41 6 -55 9 -14 3 -48 8 -76 11 -46
5 -52 4 -56 -14 -3 -12 1 -33 9 -49 8 -15 43 -82 78 -148 64 -122 123 -304
140 -435 4 -30 8 -62 10 -70 1 -8 6 -42 10 -75 4 -32 8 -66 10 -75 2 -9 6 -65
9 -126 6 -104 12 -178 22 -254 2 -19 7 -62 10 -95 10 -97 30 -184 73 -308 22
-65 43 -123 48 -130 39 -65 152 -218 178 -242 121 -113 341 -245 515 -309 41
-15 83 -31 92 -37 10 -5 35 -12 55 -15 21 -3 49 -7 63 -10 14 -2 46 -7 71 -10
26 -3 51 -9 57 -13 7 -4 12 -115 14 -324 2 -174 3 -317 2 -317 -1 0 -20 30
-42 68 -39 65 -129 161 -202 214 -59 43 -208 99 -267 100 -29 1 -59 -4 -65
-10 -16 -16 -18 -165 -3 -248 20 -113 65 -203 154 -313 60 -73 205 -157 368
-214 l63 -22 0 -562 0 -561 26 -31 c47 -56 145 -54 190 4 l26 34 5 558 c2 307
5 559 7 560 1 1 58 22 126 46 156 55 246 109 331 200 57 61 71 83 99 161 37
102 49 215 39 355 l-2 33 -71 -5 c-111 -8 -200 -41 -283 -104 -40 -30 -73 -57
-73 -61 0 -4 -15 -23 -33 -42 -18 -19 -55 -70 -82 -113 -27 -43 -52 -80 -55
-82 -7 -4 -7 682 0 689 3 3 36 10 74 16 103 16 360 107 444 157 96 56 213 157
281 241 179 224 243 337 286 507 27 107 28 119 30 400 1 160 5 313 9 340 18
128 58 255 124 394 25 53 51 110 57 127 7 17 17 38 23 45 7 8 30 37 51 65 38
49 39 53 22 68 -30 27 -213 21 -543 -19 l-38 -4 17 42 c14 37 47 93 63 107 3
3 16 22 30 42 14 21 28 38 31 38 10 0 40 49 45 73 7 40 -20 55 -94 50 -94 -5
-92 -5 -344 -73 l-227 -61 -103 31 c-57 18 -155 47 -218 67 -117 36 -203 46
-270 31z"/>
</g>
</svg>
